<!DOCTYPE svg PUBLIC "-//W3C//DTD SVG 1.1//EN" "http://www.w3.org/Graphics/SVG/1.1/DTD/svg11.dtd">

<!-- Uploaded to: SVG Repo, www.svgrepo.com, Transformed by: SVG Repo Mixer Tools -->
<svg height="24px" width="24px" version="1.1" id="Capa_1" xmlns="http://www.w3.org/2000/svg" xmlns:xlink="http://www.w3.org/1999/xlink" viewBox="0 0 364.355 364.355" xml:space="preserve" fill="#000000">

<g id="SVGRepo_bgCarrier" stroke-width="0"/>

<g id="SVGRepo_tracerCarrier" stroke-linecap="round" stroke-linejoin="round"/>

<g id="SVGRepo_iconCarrier"> <g> <path style="fill:#ffffff;" d="M182.178,0C81.725,0,0,81.725,0,182.178s81.725,182.178,182.178,182.178 s182.178-81.725,182.178-182.178S282.639,0,182.178,0z M182.178,348.098c-91.487,0-165.92-74.433-165.92-165.92 s74.433-165.92,165.92-165.92s165.92,74.433,165.92,165.92S273.665,348.098,182.178,348.098z"/> <path style="fill:#ffffff;" d="M182.178,67.427c-4.495,0-8.129,3.633-8.129,8.129v106.623c0,4.495,3.633,8.129,8.129,8.129 s8.129-3.633,8.129-8.129V75.555C190.306,71.06,186.673,67.427,182.178,67.427z"/> </g> </g>

</svg>