<?xml version="1.0" standalone="no"?>
<!DOCTYPE svg PUBLIC "-//W3C//DTD SVG 20010904//EN"
 "http://www.w3.org/TR/2001/REC-SVG-20010904/DTD/svg10.dtd">
<svg version="1.0" xmlns="http://www.w3.org/2000/svg"
 width="465.000000pt" height="51.000000pt" viewBox="0 0 465.000000 51.000000"
 preserveAspectRatio="xMidYMid meet">

<g transform="translate(0.000000,51.000000) scale(0.100000,-0.100000)"
fill="#000000" stroke="none">
<path d="M30 251 l0 -241 50 0 50 0 0 84 0 83 83 5 c98 5 145 28 172 85 21 44
16 114 -12 152 -41 54 -77 66 -215 70 l-128 3 0 -241z m247 137 c16 -15 23
-33 23 -59 0 -52 -26 -69 -107 -69 l-63 0 0 75 0 75 62 0 c50 0 66 -4 85 -22z"/>
<path d="M470 251 l0 -241 50 0 50 0 0 84 0 83 83 5 c98 5 145 28 172 85 21
44 16 114 -12 152 -41 54 -77 66 -215 70 l-128 3 0 -241z m247 137 c16 -15 23
-33 23 -59 0 -52 -26 -69 -107 -69 l-63 0 0 75 0 75 62 0 c50 0 66 -4 85 -22z"/>
<path d="M907 258 c-48 -128 -87 -236 -87 -240 0 -5 22 -8 48 -8 l48 0 15 48
15 47 91 3 91 3 17 -51 17 -50 49 0 c27 0 49 3 49 8 -1 4 -40 111 -88 237
l-87 230 -46 3 -45 3 -87 -233z m164 24 c12 -37 24 -73 27 -79 3 -10 -12 -13
-57 -13 -34 0 -61 3 -61 7 0 19 55 161 62 157 3 -2 16 -35 29 -72z"/>
<path d="M1320 250 l0 -242 128 4 c143 4 180 17 207 74 26 55 20 101 -20 141
l-34 34 25 22 c33 29 42 92 20 135 -27 53 -65 66 -203 70 l-123 4 0 -242z
m224 144 c21 -20 20 -63 -1 -86 -12 -13 -31 -18 -75 -18 l-58 0 0 60 0 60 59
0 c41 0 65 -5 75 -16z m11 -194 c22 -25 22 -65 0 -90 -14 -16 -31 -20 -82 -20
l-63 0 0 65 0 65 63 0 c51 0 68 -4 82 -20z"/>
<path d="M1760 250 l0 -240 45 0 45 0 0 240 0 240 -45 0 -45 0 0 -240z"/>
<path d="M1950 251 l0 -241 50 0 50 0 0 90 0 90 40 0 40 0 45 -90 45 -90 50 0
c28 0 50 3 50 6 0 4 -23 49 -51 101 -49 90 -50 95 -33 108 11 8 21 15 24 15 3
0 13 13 23 29 22 37 22 114 1 151 -32 53 -67 65 -206 68 l-128 4 0 -241z m239
133 c27 -34 27 -62 -1 -91 -18 -19 -32 -23 -80 -23 l-58 0 0 70 0 70 59 0 c52
0 62 -3 80 -26z"/>
<path d="M2400 250 l0 -240 45 0 45 0 0 240 0 240 -45 0 -45 0 0 -240z"/>
<path d="M2987 258 c-48 -128 -87 -236 -87 -240 0 -5 22 -8 48 -8 l48 0 15 48
15 47 91 3 91 3 17 -51 17 -50 49 0 c27 0 49 3 49 8 -1 4 -40 111 -88 237
l-87 230 -46 3 -45 3 -87 -233z m164 24 c12 -37 24 -73 27 -79 3 -10 -12 -13
-57 -13 -34 0 -61 3 -61 7 0 19 55 161 62 157 3 -2 16 -35 29 -72z"/>
<path d="M3400 251 l0 -241 45 0 44 0 3 158 3 157 95 -155 95 -155 48 -3 47
-3 0 240 0 241 -45 0 -45 0 0 -157 c0 -86 -3 -153 -7 -149 -5 4 -49 73 -99
154 l-90 147 -47 3 -47 3 0 -240z"/>
<path d="M3937 258 c-48 -128 -87 -236 -87 -240 0 -5 22 -8 48 -8 l48 0 15 48
15 47 91 3 91 3 17 -51 17 -50 49 0 c27 0 49 3 49 8 -1 4 -40 111 -88 237
l-87 230 -46 3 -45 3 -87 -233z m164 24 c12 -37 24 -73 27 -79 3 -10 -12 -13
-57 -13 -34 0 -61 3 -61 7 0 19 55 161 62 157 3 -2 16 -35 29 -72z"/>
<path d="M4342 333 l3 -46 88 -30 c48 -16 87 -32 87 -36 0 -3 -39 -20 -87 -37
l-88 -31 -3 -46 -3 -47 83 36 c46 20 111 47 146 61 61 25 62 26 62 63 0 34 -3
39 -37 53 -21 8 -87 36 -146 61 l-108 45 3 -46z"/>
<path d="M2693 313 l-133 -56 0 -37 0 -37 134 -57 c74 -31 137 -56 140 -56 3
0 6 19 6 43 l0 43 -85 28 c-47 15 -85 31 -85 35 0 4 38 20 85 36 l85 30 0 42
c0 24 -3 43 -7 43 -5 0 -68 -26 -140 -57z"/>
</g>
</svg>
